<?xml version="1.0" standalone="no"?>
<!DOCTYPE svg PUBLIC "-//W3C//DTD SVG 20010904//EN"
 "http://www.w3.org/TR/2001/REC-SVG-20010904/DTD/svg10.dtd">
<svg version="1.0" xmlns="http://www.w3.org/2000/svg"
 width="293.000000pt" height="177.000000pt" viewBox="0 0 293.000000 177.000000"
 preserveAspectRatio="xMidYMid meet">

<g transform="translate(0.000000,177.000000) scale(0.100000,-0.100000)"
fill="#000000" stroke="none">
<path d="M0 885 l0 -885 1465 0 1465 0 0 885 0 885 -1465 0 -1465 0 0 -885z
m2443 798 c38 -19 74 -78 88 -143 10 -49 9 -135 -4 -313 -2 -26 3 -30 91 -67
111 -47 213 -117 249 -171 90 -136 -12 -279 -271 -380 -61 -24 -71 -31 -69
-51 1 -13 6 -64 11 -114 19 -168 -10 -284 -85 -341 -31 -24 -45 -28 -98 -27
-90 1 -220 65 -326 162 l-38 33 -85 -65 c-99 -76 -139 -98 -220 -121 -106 -31
-188 3 -229 94 -18 39 -21 66 -22 171 0 69 4 150 8 181 l9 56 -34 7 c-18 3
-75 27 -127 53 -199 98 -267 223 -187 343 35 53 137 123 248 170 l93 39 -5 48
c-3 26 -5 107 -5 178 0 119 2 134 25 180 34 68 77 95 151 95 35 0 81 -9 114
-21 62 -23 186 -103 224 -143 14 -14 28 -26 33 -26 4 0 25 15 45 33 157 139
313 192 416 140z m-1823 -637 l0 -394 -22 -7 c-47 -14 -265 -18 -316 -5 -77
18 -132 58 -167 121 -26 47 -29 64 -30 134 0 127 47 209 150 263 41 21 64 26
132 26 l83 1 0 128 0 127 85 0 85 0 0 -394z m270 304 l0 -90 -85 0 -85 0 0 90
0 90 85 0 85 0 0 -90z m-3 -462 c-4 -336 -6 -346 -82 -425 -68 -70 -86 -73
-174 -28 l-72 36 48 32 c58 39 88 82 102 148 6 28 11 156 11 289 l0 240 86 0
85 0 -4 -292z"/>
<path d="M1553 1598 c-42 -46 -55 -180 -32 -315 10 -59 13 -64 33 -59 12 3 64
12 116 21 52 9 100 22 106 28 31 32 144 173 144 179 0 5 -36 35 -80 67 -128
96 -243 127 -287 79z"/>
<path d="M2250 1594 c-59 -27 -200 -129 -200 -143 0 -8 41 -59 132 -163 19
-23 38 -30 118 -43 52 -9 104 -18 116 -21 20 -5 23 0 33 59 23 135 10 269 -32
315 -29 31 -95 30 -167 -4z"/>
<path d="M1931 1331 l-53 -61 101 0 c56 0 101 3 101 8 0 4 -22 31 -48 61 l-48
53 -53 -61z"/>
<path d="M1838 1181 c-31 -7 -97 -103 -157 -228 l-34 -71 43 -78 c24 -44 63
-109 86 -146 l44 -68 164 0 165 0 39 58 c21 31 61 99 88 150 l49 92 -44 83
c-77 142 -119 201 -149 208 -15 4 -81 7 -147 7 -66 0 -132 -3 -147 -7z m209
-136 c71 -30 105 -80 105 -155 0 -150 -173 -225 -281 -122 -90 86 -69 222 43
273 50 23 85 24 133 4z"/>
<path d="M1675 1165 c-5 -2 -36 -9 -67 -15 l-57 -11 19 -54 c33 -96 32 -96 84
-7 54 96 55 99 21 87z"/>
<path d="M2270 1166 c0 -4 21 -43 47 -87 45 -77 47 -80 59 -57 6 13 18 42 25
66 15 51 10 57 -59 67 -24 4 -51 9 -58 12 -8 3 -14 2 -14 -1z"/>
<path d="M1410 1096 c-182 -75 -272 -154 -255 -225 14 -57 123 -138 249 -186
62 -23 67 -24 73 -8 3 10 23 61 43 114 l37 97 -22 54 c-12 30 -30 79 -40 109
-10 30 -20 57 -24 61 -3 3 -31 -4 -61 -16z"/>
<path d="M2495 1107 c-2 -6 -20 -55 -40 -107 -19 -52 -35 -102 -35 -110 0 -8
16 -58 35 -110 20 -52 38 -101 40 -108 10 -29 218 73 282 140 58 61 52 112
-22 177 -63 55 -252 142 -260 118z"/>
<path d="M1595 763 c-4 -10 -15 -42 -25 -70 l-19 -53 37 -9 c59 -15 112 -22
112 -16 0 6 -91 165 -95 165 -2 0 -6 -8 -10 -17z"/>
<path d="M2316 700 c-26 -45 -45 -84 -43 -86 4 -4 41 2 124 21 l22 5 -19 55
c-33 95 -32 95 -84 5z"/>
<path d="M1523 513 c-4 -26 -8 -97 -8 -158 0 -86 4 -118 18 -147 22 -43 62
-63 109 -53 52 11 178 81 233 129 l50 43 -25 31 c-14 16 -48 59 -77 94 l-51
63 -107 18 c-59 10 -113 21 -120 24 -10 3 -16 -10 -22 -44z"/>
<path d="M2311 536 l-114 -22 -36 -46 c-20 -25 -54 -67 -76 -93 l-39 -47 34
-29 c88 -75 172 -123 240 -138 93 -21 132 27 138 171 4 85 -13 229 -26 227 -4
-1 -58 -11 -121 -23z"/>
<path d="M1890 504 c0 -4 21 -32 47 -62 l47 -55 48 53 c26 30 48 57 48 62 0 4
-43 8 -95 8 -52 0 -95 -3 -95 -6z"/>
<path d="M335 1036 c-57 -25 -70 -50 -70 -132 0 -66 3 -76 26 -99 29 -30 88
-47 131 -38 l28 6 0 132 c0 112 -2 134 -16 139 -25 10 -67 6 -99 -8z"/>
</g>
</svg>
